<?xml version="1.0" standalone="no"?>
<!DOCTYPE svg PUBLIC "-//W3C//DTD SVG 20010904//EN"
 "http://www.w3.org/TR/2001/REC-SVG-20010904/DTD/svg10.dtd">
<svg version="1.0" 
        xmlns="http://www.w3.org/2000/svg" width="50px" height="39px" viewBox="0 0 50 39" preserveAspectRatio="xMidYMid meet">
<g transform="translate(0.000000,500.000000) scale(0.100000,-0.100000)"
fill="#000000" stroke="none">
<path d="M2 4951 c-1 -43 2 -50 21 -54 22 -4 22 -4 1 -6 -21 -1 -22 -6 -21
-120 l0 -119 41 -12 c23 -6 64 -15 91 -20 l50 -9 -55 4 c-30 3 -72 8 -92 11
l-38 7 0 -186 c0 -168 2 -186 18 -190 16 -4 16 -5 0 -6 -14 -1 -18 -10 -18
-45 0 -38 3 -45 23 -49 l22 -4 -22 -2 c-28 -1 -32 -37 -5 -44 16 -4 16 -5 0
-6 -17 -1 -18 -36 -18 -561 0 -439 3 -560 13 -560 8 0 7 -4 -3 -10 -13 -9 -13
-11 0 -20 10 -6 11 -10 3 -10 -19 0 -19 -946 0 -953 10 -4 10 -6 0 -6 -10 -1
-13 -206 -13 -991 l0 -990 230 0 c207 0 230 2 230 17 0 15 1 15 18 0 17 -16
154 -17 1795 -17 1166 0 1777 4 1777 10 0 6 5 10 11 10 5 0 8 -4 4 -9 -3 -6
52 -10 134 -10 l140 -1 5 32 c3 18 8 47 10 63 2 17 3 2 2 -32 l-2 -63 36 0
c20 0 42 6 49 12 10 9 12 9 7 1 -5 -9 45 -12 204 -12 l210 -1 0 35 c0 31 3 35
35 41 38 7 65 0 65 -15 0 -7 -17 -8 -45 -4 -41 5 -45 4 -39 -13 11 -31 35 -44
81 -44 l43 0 0 1044 0 1044 -22 15 c-13 8 -20 18 -16 22 4 4 14 2 23 -5 13
-11 15 -8 15 23 0 34 -22 60 -47 56 -20 -3 -27 2 -14 10 8 6 24 6 38 0 17 -6
23 -5 23 6 0 19 -38 29 -55 15 -12 -10 -15 -9 -15 9 0 24 7 25 44 11 l26 -9
-3 1271 -2 1272 -41 8 c-33 7 -40 12 -40 31 1 27 13 37 48 37 21 0 27 -5 31
-27 2 -16 5 16 6 70 l1 97 -74 0 -73 0 -6 -67 c-4 -38 -7 -101 -7 -142 0 -66
-2 -72 -17 -66 -10 5 -32 9 -48 9 -17 1 -43 11 -58 23 l-27 21 6 111 7 111
-331 0 c-233 0 -332 -4 -332 -11 0 -6 -9 -9 -20 -6 -27 7 -25 -1 3 -13 18 -7
15 -9 -20 -9 -24 -1 -43 -5 -43 -10 0 -9 -29 -20 -67 -26 -17 -3 -23 1 -23 16
0 14 7 19 28 20 l27 1 -30 8 c-24 6 -18 8 35 10 l65 3 -75 7 c-41 5 -940 8
-1997 9 l-1921 1 0 -49z m348 -216 c0 -8 6 -15 13 -15 9 0 9 -2 -1 -8 -16 -10
16 -28 73 -41 22 -4 47 -10 55 -12 9 -3 14 2 12 11 -2 8 0 12 4 7 4 -4 15 0
24 8 12 11 17 12 18 3 9 -101 17 -108 107 -107 47 1 48 2 23 12 -21 8 -28 17
-27 36 1 21 2 22 6 6 6 -22 21 -35 42 -35 9 0 7 7 -8 19 -28 25 -9 32 34 13
l31 -14 -1 -107 c-1 -58 -3 -117 -4 -130 l-1 -24 -23 21 c-13 12 -27 22 -33
22 -5 0 0 -8 11 -17 20 -15 19 -15 -5 -10 l-25 6 24 -18 c23 -18 23 -18 -33
-13 -43 3 -68 -1 -107 -18 -39 -16 -54 -19 -59 -10 -4 7 -13 9 -19 5 -9 -5 -7
-11 6 -20 17 -13 16 -14 -6 -8 -20 5 -23 3 -19 -14 3 -11 0 -20 -6 -21 -6 0
-22 -4 -36 -8 -23 -7 -24 -6 -10 10 13 16 12 20 -8 36 -15 13 -22 29 -22 53 0
39 -22 54 -62 42 -18 -6 -20 -4 -14 11 6 15 5 17 -5 7 -18 -18 -29 -16 -29 4
0 9 -7 25 -17 35 -9 10 -11 18 -5 18 6 0 18 -12 27 -27 14 -25 15 -25 9 -4 -4
16 -3 21 5 16 7 -4 19 -4 27 -1 12 4 12 9 2 25 -11 18 -13 18 -25 3 -12 -15
-13 -14 -7 11 4 19 2 27 -8 27 -7 0 -19 9 -26 21 -12 19 -11 19 8 9 19 -10 20
-9 18 12 -2 13 -7 29 -11 36 -8 12 1 16 38 13 19 -1 19 -1 2 10 -10 6 -24 8
-32 6 -8 -4 -12 1 -11 11 2 9 9 18 17 20 11 3 11 1 -1 -7 -11 -8 -12 -11 -2
-11 17 0 43 26 35 34 -4 3 2 6 13 6 16 1 15 4 -8 21 -32 24 -35 36 -10 42 33
9 42 7 42 -8z m2437 -211 c124 -18 319 -65 396 -95 28 -11 53 -21 54 -20 21 3
237 -103 341 -167 232 -144 449 -350 608 -579 28 -40 54 -70 59 -65 5 4 5 1 1
-5 -4 -7 11 -44 34 -84 44 -74 114 -227 145 -316 11 -29 22 -53 26 -53 4 0 5
-10 1 -22 -3 -11 -1 -19 4 -16 5 4 10 -6 10 -20 1 -15 13 -81 27 -147 55 -253
61 -482 21 -724 -14 -86 -28 -159 -30 -163 -3 -4 11 -24 31 -44 29 -28 34 -39
24 -50 -15 -18 -29 -9 -22 14 5 23 -34 62 -41 41 -3 -8 -22 -63 -42 -124 -41
-127 -125 -308 -189 -411 -25 -40 -45 -77 -45 -83 0 -6 -4 -11 -8 -11 -5 0
-24 -21 -42 -48 -19 -26 -53 -69 -76 -97 -45 -54 -57 -85 -35 -93 10 -3 12 1
8 14 -7 18 -6 18 7 2 7 -10 22 -18 32 -18 18 -1 18 -1 -1 -17 -18 -14 -18 -15
-1 -9 23 8 46 -10 46 -36 0 -11 7 -26 15 -35 9 -9 14 -26 11 -41 -2 -15 -5
-33 -5 -41 -1 -7 -7 -11 -15 -8 -14 5 -16 -8 -5 -28 3 -5 6 -25 7 -42 2 -29
-1 -33 -23 -33 -14 0 -25 -4 -25 -9 0 -15 27 -20 39 -8 8 8 11 7 11 -5 0 -10
11 -29 25 -44 20 -21 25 -23 25 -10 0 11 4 15 13 10 7 -5 6 0 -3 11 -14 17
-13 18 23 12 41 -6 45 -2 21 24 -15 16 -14 17 5 12 25 -6 27 2 6 23 -19 20
-19 50 0 58 10 3 15 -1 15 -13 0 -10 7 -21 15 -25 8 -3 12 -12 9 -20 -3 -8 -1
-17 5 -20 17 -11 24 34 8 52 -23 27 -29 42 -18 42 6 0 11 -6 11 -14 0 -8 6
-16 14 -19 10 -4 14 -24 15 -66 l1 -60 -42 -11 c-30 -9 -38 -14 -29 -23 14
-14 41 -18 41 -6 0 6 4 8 9 5 5 -3 20 5 34 18 24 23 27 23 41 7 9 -10 16 -27
16 -38 0 -16 -5 -19 -27 -16 -27 4 -27 4 -9 -11 25 -20 18 -20 -28 -1 -36 15
-36 15 -36 -10 0 -17 6 -25 17 -25 9 0 14 -3 11 -6 -4 -3 -22 -1 -42 4 -33 10
-34 9 -23 -9 6 -10 16 -19 22 -19 6 0 16 -9 23 -20 7 -12 17 -18 22 -15 6 4 5
-5 -2 -19 -6 -14 -16 -26 -21 -26 -5 0 -3 8 4 17 10 11 10 14 2 9 -7 -4 -13
-2 -13 3 0 6 -5 11 -12 11 -9 0 -9 -3 -1 -11 13 -13 7 -34 -21 -66 -18 -21
-21 -22 -37 -7 -10 9 -25 14 -34 11 -8 -4 -14 -3 -13 1 4 21 -16 42 -35 36
-16 -5 -19 -3 -15 13 3 12 0 20 -8 20 -7 0 -10 -5 -7 -11 4 -6 -1 -4 -12 4
-21 17 -24 17 -37 -2 -7 -9 -8 -8 -5 7 2 11 8 19 13 18 5 -1 10 7 10 18 0 10
-4 19 -8 19 -4 0 -8 6 -8 14 0 16 -53 84 -81 104 -16 11 -23 11 -34 2 -19 -16
-19 -34 0 -26 20 7 19 1 -2 -20 -16 -15 -16 -17 -2 -12 16 6 39 -8 39 -24 0
-13 -28 -9 -33 5 -3 6 -6 -1 -6 -16 -1 -20 -5 -26 -13 -21 -9 5 -9 2 1 -9 19
-23 70 -23 66 0 -1 10 0 13 2 7 6 -17 51 -35 57 -23 2 5 3 4 2 -3 -2 -7 -8
-12 -14 -11 -6 2 -9 -5 -6 -15 5 -15 4 -15 -5 -1 -8 12 -24 15 -66 14 -31 -2
-59 -5 -62 -9 -4 -3 12 -4 35 -2 25 2 42 0 42 -6 0 -7 -19 -9 -49 -6 -27 3
-57 1 -66 -5 -13 -7 -16 -6 -11 2 4 6 2 11 -4 11 -6 0 -8 5 -4 11 3 6 15 9 25
6 11 -3 19 -1 19 4 0 5 8 9 18 10 14 0 14 2 -3 8 -11 5 -26 6 -32 4 -9 -4 -11
6 -7 38 7 61 12 72 29 65 8 -3 17 -1 20 4 4 6 -2 10 -12 10 -39 0 -58 51 -30
79 10 10 6 11 -16 7 -24 -4 -27 -3 -17 10 10 11 10 14 0 14 -7 0 -10 7 -7 15
4 8 1 17 -5 21 -7 4 -8 3 -4 -4 4 -7 3 -12 -3 -12 -17 0 -24 22 -10 32 11 8
10 9 -3 4 -10 -3 -20 -1 -23 4 -4 6 -1 10 6 10 7 0 10 3 6 6 -3 3 -13 2 -23
-4 -11 -6 -13 -11 -5 -16 6 -4 11 -12 11 -19 0 -8 -3 -8 -12 1 -22 22 -32 12
-10 -11 39 -41 16 -62 -26 -24 -33 30 -35 18 -3 -19 17 -19 29 -39 26 -45 -4
-5 0 -9 7 -9 7 0 14 -12 15 -28 2 -24 -2 -27 -33 -29 -25 -2 -34 1 -34 12 0
13 4 14 20 5 19 -10 20 -9 14 17 -4 15 -13 35 -20 44 -8 9 -12 18 -9 21 9 9
-30 37 -41 30 -14 -9 -29 -72 -17 -72 5 0 17 -13 26 -30 24 -40 16 -38 -28 8
-20 20 -35 30 -33 22 2 -8 11 -18 20 -22 12 -5 15 -13 11 -25 -4 -10 -8 -12
-11 -5 -2 7 -8 12 -13 12 -6 0 -7 -4 -4 -10 3 -5 -3 -10 -14 -10 -22 0 -29 26
-10 32 7 2 9 13 5 26 -7 22 -8 22 -69 -13 -196 -113 -431 -204 -632 -244 -300
-60 -616 -52 -917 25 -562 142 -1055 548 -1305 1074 -80 169 -144 378 -175
570 -21 133 -17 489 6 625 10 61 20 120 21 132 2 12 6 27 10 32 3 6 1 11 -6
11 -8 0 -6 6 4 18 10 10 17 27 17 38 0 11 4 24 9 29 5 6 19 42 31 80 55 171
175 398 298 565 69 93 79 107 68 98 -14 -12 -32 15 -39 56 -5 32 -3 39 13 43
11 3 20 11 20 18 0 15 -27 28 -41 19 -5 -3 -9 -1 -9 5 0 5 -20 19 -45 31 -62
30 -62 57 0 30 25 -11 53 -16 62 -13 11 5 14 3 8 -6 -5 -10 -3 -11 11 -4 11 4
37 8 59 8 31 0 42 -5 51 -24 19 -37 32 -47 46 -33 10 10 7 16 -10 28 -23 16
-29 34 -12 34 6 0 19 -9 30 -20 11 -11 22 -15 25 -9 4 5 34 33 68 61 34 28 61
54 60 58 -1 4 4 7 10 7 7 0 44 22 82 50 39 27 105 70 149 94 75 42 77 44 50
51 -24 6 -23 7 7 3 20 -2 45 2 55 9 27 18 156 70 249 101 163 53 266 74 480
99 89 10 335 4 432 -10z m1694 -3999 c16 5 19 1 19 -27 0 -18 6 -42 14 -53 7
-11 16 -33 20 -49 6 -22 10 -26 19 -17 12 12 13 16 16 46 2 21 23 19 119 -12
l85 -28 -6 -75 c-3 -41 -11 -76 -16 -78 -15 -5 -14 -29 2 -36 6 -3 -32 -4 -85
-1 l-98 5 -6 -25 c-3 -14 -12 -25 -19 -25 -10 0 -9 9 5 37 10 21 16 41 13 45
-11 18 10 28 23 11 8 -11 13 -13 14 -5 0 7 7 5 19 -7 26 -26 81 -37 92 -20 15
23 11 28 -40 43 -27 8 -60 20 -72 26 -19 10 -24 10 -35 -4 -10 -15 -12 -14
-18 10 -4 14 -14 33 -21 41 -8 8 -15 31 -16 51 -1 20 -4 48 -9 62 -6 20 -9 22
-14 9 -5 -10 -15 -14 -30 -12 -19 4 -23 12 -24 41 -1 21 2 32 6 26 4 -6 16 -8
27 -4 17 6 16 7 -8 14 -23 5 -25 9 -15 20 11 12 14 12 16 0 2 -10 11 -13 23
-9z m-398 -15 c68 -10 139 -39 153 -62 5 -8 0 -7 -12 2 -17 14 -18 14 -6 -2 8
-9 19 -15 26 -12 11 4 31 -15 88 -85 7 -9 25 -12 53 -9 52 6 82 -7 64 -28 -9
-11 -9 -17 1 -29 7 -9 8 -15 2 -15 -5 0 -12 7 -16 15 -3 8 -13 15 -21 15 -9 0
-13 -4 -10 -10 3 -5 1 -10 -4 -10 -6 0 -11 5 -11 10 0 6 -7 10 -15 10 -10 0
-14 -12 -13 -44 0 -42 2 -45 29 -44 30 1 39 12 17 21 -7 3 -1 6 13 6 15 1 29
-6 33 -14 4 -10 -1 -15 -15 -15 -11 0 -22 -6 -25 -13 -3 -8 -18 -14 -33 -14
-27 0 -29 3 -34 55 -3 30 -10 58 -15 61 -5 3 -12 13 -15 21 -4 8 -4 -7 -2 -35
l5 -50 -13 43 c-7 24 -15 40 -20 36 -7 -8 -8 -6 -12 36 -4 42 -85 103 -168
128 -39 11 -79 21 -87 21 -8 0 -30 2 -47 4 -18 2 -35 -2 -37 -7 -2 -6 -5 -3
-5 6 -1 12 -6 15 -18 11 -10 -4 -14 -2 -9 5 7 12 64 9 179 -8z"/>
<path d="M2100 3060 l0 -150 70 0 c86 0 133 18 159 62 52 84 28 191 -50 222
-23 9 -69 16 -109 16 l-70 0 0 -150z"/>
<path d="M2410 3060 l0 -150 70 0 c39 0 86 6 105 14 70 30 103 133 66 209 -28
58 -69 77 -166 77 l-75 0 0 -150z"/>
<path d="M2736 3187 c-28 -28 -34 -73 -16 -108 6 -10 33 -30 60 -44 28 -14 50
-32 50 -39 0 -19 -41 -27 -81 -16 -19 6 -35 10 -36 10 -2 0 -3 -15 -3 -34 0
-29 4 -36 31 -45 44 -15 67 -14 116 8 34 16 44 27 54 60 15 52 2 74 -67 110
-56 30 -65 56 -19 55 17 0 39 -2 50 -5 14 -3 22 3 29 23 5 15 6 31 2 35 -4 4
-38 9 -76 11 -63 4 -71 2 -94 -21z"/>
<path d="M2461 2474 c-22 -16 -28 -48 -11 -59 11 -7 3 -52 -12 -71 -25 -32 28
-64 79 -47 22 8 28 16 28 39 0 26 -3 29 -37 32 -44 4 -55 32 -12 32 19 0 28 8
40 36 8 20 14 37 12 39 -15 12 -69 11 -87 -1z"/>
<path d="M2404 2032 c-74 -26 -148 -82 -152 -114 -2 -14 -11 -28 -20 -30 -12
-3 -27 -34 -46 -93 -25 -76 -28 -95 -19 -128 10 -36 8 -42 -38 -113 -27 -41
-49 -81 -49 -90 0 -8 16 -22 35 -30 29 -12 33 -17 26 -36 -5 -13 -2 -37 7 -62
9 -23 16 -65 17 -95 1 -63 15 -77 84 -86 129 -16 133 -19 140 -82 l6 -48 247
-3 247 -2 -15 42 c-22 63 -28 155 -15 220 7 32 38 106 69 165 l57 108 0 105
c0 137 -23 200 -104 281 -81 80 -140 101 -301 105 -101 3 -135 0 -176 -14z
m307 -28 c107 -34 185 -110 214 -207 19 -64 19 -91 0 -154 -21 -71 -89 -144
-171 -184 -170 -84 -395 -26 -488 126 -42 68 -48 167 -16 243 67 157 275 236
461 176z"/>
</g>
</svg>
