<?xml version="1.0" standalone="no"?>
<svg version="1.0" 
    xmlns="http://www.w3.org/2000/svg" width="50px" height="39px" viewBox="0 0 50 39" preserveAspectRatio="xMidYMid meet">
    <metadata>
Created by potrace 1.15, written by Peter Selinger 2001-2017
    </metadata>
    <g transform="translate(0.000000,1023.000000) scale(0.100000,-0.100000)" fill="#000000" stroke="none">
        <path d="M2615 8833 c-27 -26 -171 -164 -319 -307 -148 -144 -303 -294 -345
-334 -42 -41 -70 -70 -62 -66 10 5 12 3 6 -6 -4 -7 -2 -16 6 -21 9 -6 10 -9 2
-9 -6 0 -15 5 -18 10 -9 15 -25 12 -25 -4 0 -8 -5 -18 -12 -22 -7 -5 -8 -3 -3
7 5 8 -1 5 -13 -5 -22 -19 -30 -56 -12 -56 5 0 7 7 4 15 -4 8 -2 15 3 15 13 0
12 -33 -1 -43 -6 -5 -2 -6 9 -1 11 4 35 9 53 12 17 2 32 8 32 13 0 4 21 9 48
11 26 2 46 8 45 13 -1 6 11 11 27 10 16 0 26 -4 22 -10 -3 -5 4 -1 16 9 21 18
31 43 14 32 -5 -3 -9 1 -9 9 0 8 5 13 11 12 6 -1 10 4 8 12 -3 12 -1 12 13 1
14 -12 47 17 278 248 l262 262 3221 0 3220 0 317 -317 c262 -262 319 -315 329
-304 11 11 10 12 -1 6 -10 -6 -12 -4 -6 4 5 9 10 10 18 2 6 -6 48 -11 95 -11
72 0 83 -2 78 -16 -5 -12 1 -14 26 -11 17 2 33 10 36 18 3 11 2 11 -7 -1 -6
-8 -11 -12 -12 -7 -1 4 -2 10 -3 15 -3 18 -61 72 -73 68 -7 -3 -13 -1 -13 5 0
6 -5 7 -10 4 -6 -4 -7 -11 -4 -17 4 -7 2 -8 -5 -4 -16 10 6 39 23 30 18 -11
-259 262 -666 654 l-127 122 -3213 0 -3213 0 -50 -47z"/>
        <path d="M7954 8512 c-14 -128 -9 -254 10 -264 22 -13 23 -136 1 -144 -12 -5
-15 -26 -15 -100 l0 -94 -37 1 c-73 1 -78 7 -80 95 -2 108 -1 104 -17 104 -8
0 -18 -14 -22 -32 -4 -19 -22 -46 -42 -63 -26 -23 -33 -36 -28 -51 16 -51 158
-91 283 -80 169 15 240 79 158 142 -27 21 -35 33 -35 59 0 28 5 35 32 44 63
22 68 34 68 146 0 66 -4 107 -12 117 -12 13 -109 89 -220 170 l-36 27 -8 -77z"/>
        <path d="M8792 8568 c-1 -7 -4 -71 -7 -142 -3 -71 -7 -131 -9 -134 -7 -7 7
-36 21 -45 16 -10 18 -132 3 -142 -6 -3 -10 -48 -10 -101 l0 -94 -43 0 c-23 0
-53 7 -65 16 -22 15 -23 22 -20 100 3 72 1 84 -14 88 -15 3 -18 -3 -18 -35 0
-26 -5 -39 -13 -39 -20 0 -57 -43 -57 -67 0 -84 293 -123 423 -56 39 19 47 30
47 66 0 21 -8 32 -30 45 -24 14 -30 24 -30 53 0 32 4 37 45 57 l45 22 0 115 0
114 -120 91 c-130 98 -146 108 -148 88z"/>
        <path d="M4450 8085 c-87 -20 -215 -85 -267 -136 -24 -23 -43 -46 -43 -51 0
-5 -4 -7 -8 -4 -4 2 -14 -5 -22 -17 -12 -20 -12 -21 3 -9 10 9 17 10 22 2 4
-6 3 -10 -2 -9 -4 1 -16 -1 -25 -5 -13 -6 -15 -13 -9 -24 10 -20 3 -45 -9 -37
-5 3 -12 0 -16 -6 -4 -8 -3 -9 4 -5 7 4 12 1 12 -6 0 -10 2 -10 9 1 5 7 14 10
20 7 6 -4 11 -2 11 3 0 6 -4 11 -8 11 -14 0 -11 38 3 44 9 3 12 -2 10 -16 -8
-38 6 -39 48 -3 54 46 164 100 247 121 85 22 244 22 330 -1 102 -26 203 -81
279 -151 64 -60 68 -62 67 -36 -1 15 2 35 6 44 5 9 4 20 -2 23 -6 4 -8 11 -5
16 4 5 -20 37 -52 70 -65 68 -164 128 -263 160 -86 27 -252 34 -340 14z"/>
        <path d="M5355 8019 c-51 -27 -59 -42 -60 -105 l-1 -50 41 20 c55 28 174 29
229 2 48 -24 99 -74 117 -115 19 -42 29 -39 29 8 0 55 -28 134 -61 174 -67 81
-207 112 -294 66z"/>
        <path d="M4474 7805 c-167 -36 -288 -153 -339 -329 -13 -44 -16 -86 -13 -165
3 -100 6 -113 40 -183 23 -46 55 -91 83 -117 31 -29 39 -41 27 -41 -9 -1 -62
-5 -116 -9 -97 -8 -100 -9 -133 -44 -29 -32 -33 -43 -33 -92 0 -37 -4 -55 -12
-55 -7 -1 -31 -3 -53 -5 -30 -4 -35 -2 -20 4 13 7 15 10 5 10 -25 1 -60 -11
-60 -20 0 -5 8 -5 18 -2 16 6 16 6 0 -10 -14 -14 -47 -17 -255 -20 l-238 -2
243 -3 242 -2 0 -29 c0 -16 9 -58 20 -93 11 -34 20 -69 20 -75 0 -10 -279 -13
-1360 -13 l-1360 0 0 -130 c0 -128 0 -130 23 -130 12 0 182 7 377 15 410 17
1171 41 1740 55 278 7 396 6 401 -1 3 -6 9 -37 12 -68 4 -31 18 -90 32 -131
15 -41 29 -83 32 -92 5 -17 -37 -18 -790 -18 l-794 0 -56 -137 c-31 -76 -175
-438 -321 -805 l-266 -667 0 -121 0 -120 240 0 240 0 0 -885 c0 -836 1 -885
18 -885 22 0 1807 0 2315 0 l387 0 0 885 0 885 50 0 50 0 0 -940 0 -941 -41
-74 -41 -75 -1879 0 -1879 0 0 -301 0 -302 -201 -275 c-110 -151 -205 -285
-210 -298 -4 -13 -13 -24 -19 -24 -5 0 -10 -5 -10 -12 0 -6 -8 -21 -18 -32
-16 -20 -16 -20 1 -7 13 11 17 11 17 1 0 -9 7 -7 22 6 12 10 19 14 15 8 -4 -7
50 -10 173 -9 98 0 177 -2 174 -6 -2 -4 4 -6 14 -5 9 0 23 10 30 21 12 19 12
19 10 1 -3 -20 20 -20 1867 -21 1029 0 1876 1 1883 3 7 3 31 38 53 78 l41 74
1006 -2 1007 -3 40 -75 40 -74 1893 -1 c1260 0 1892 3 1892 10 0 6 3 6 8 -1 5
-7 29 -9 72 -4 36 4 118 6 182 4 98 -2 119 0 130 14 11 14 11 15 -5 9 -11 -4
-16 -3 -12 4 10 14 28 6 31 -14 1 -9 -2 -15 -7 -11 -5 3 -9 0 -9 -6 0 -7 6
-10 13 -7 6 2 11 10 9 16 -1 6 3 11 8 11 6 0 5 8 -2 20 -7 11 -18 18 -25 16
-7 -3 -15 0 -19 6 -5 7 -2 8 6 3 28 -17 -4 31 -204 305 l-206 282 0 299 0 299
-1877 0 -1878 0 -42 76 -43 77 0 938 0 939 50 0 50 0 0 -885 0 -885 398 0
c218 0 828 0 1356 0 527 0 961 1 963 3 2 3 4 401 4 886 l0 881 240 0 239 0 -1
128 0 127 -317 795 -318 795 -807 3 c-693 2 -807 4 -807 16 0 8 4 17 9 21 14
8 49 122 54 175 3 25 8 60 12 78 l8 33 191 -5 c105 -4 373 -11 596 -16 449
-12 1157 -35 1495 -50 121 -5 235 -10 253 -10 l32 0 0 130 0 130 -1376 0
c-1234 0 -1376 2 -1370 15 16 43 35 127 41 182 7 71 5 72 -81 63 l-51 -6 8 36
c5 19 9 87 9 151 0 195 -48 330 -150 421 -125 112 -330 130 -488 43 l-42 -24
-24 24 c-45 45 -180 69 -243 44 -18 -8 -84 -11 -180 -10 -212 3 -221 -3 -252
-165 l-16 -89 -31 55 c-79 139 -224 220 -393 220 -94 0 -162 -18 -244 -63
l-64 -35 -27 34 c-15 19 -38 37 -51 40 -19 5 -24 11 -20 28 14 64 25 145 25
182 0 59 -44 104 -101 104 -51 0 -60 -5 -199 -110 -134 -101 -137 -104 -148
-156 -12 -60 -34 -54 -60 18 -80 224 -325 348 -578 293z m298 -159 c64 -30
131 -92 159 -148 25 -50 54 -177 43 -188 -5 -4 -51 -10 -103 -12 l-94 -3 -12
47 c-24 97 -70 132 -176 132 -85 0 -128 -23 -149 -82 -13 -37 -13 -47 0 -84
13 -37 27 -50 92 -93 43 -27 113 -70 157 -94 108 -59 154 -100 188 -169 25
-51 28 -67 27 -157 0 -79 -5 -112 -23 -157 -31 -80 -106 -159 -189 -200 -64
-32 -71 -33 -187 -33 -150 0 -211 21 -290 99 -62 61 -94 136 -102 242 l-6 71
48 6 c26 4 71 7 100 7 l52 0 6 -62 c6 -69 26 -102 78 -133 49 -29 180 -28 229
1 48 28 80 78 80 126 0 62 -23 93 -103 139 -218 126 -257 152 -287 186 -51 57
-73 117 -78 210 -10 181 76 319 231 369 28 9 77 13 147 11 89 -3 113 -8 162
-31z m658 -153 c-11 -65 -23 -130 -26 -145 l-6 -28 61 0 c34 0 61 -4 61 -8 0
-5 -5 -35 -10 -68 -20 -113 -13 -104 -79 -104 -57 0 -60 -1 -65 -27 -25 -119
-76 -424 -76 -458 0 -54 13 -65 78 -65 41 0 53 -3 49 -13 -3 -7 -11 -48 -17
-90 -13 -76 -13 -77 -47 -83 -52 -10 -154 1 -191 20 -18 9 -42 31 -52 49 -36
58 -35 105 5 356 21 130 40 253 43 274 l4 37 -46 0 c-25 0 -46 1 -46 3 0 1 7
40 15 87 8 47 15 86 15 88 0 1 22 2 49 2 l49 0 12 71 12 70 111 84 c62 46 113
80 115 75 2 -5 -6 -62 -18 -127z m661 -185 c141 -64 208 -202 196 -403 -7
-116 -24 -185 -67 -271 -44 -90 -109 -157 -188 -196 -61 -30 -74 -33 -162 -33
-84 0 -102 3 -152 28 -68 33 -121 90 -156 166 -23 49 -27 72 -30 186 -5 147 8
215 58 323 33 71 114 162 168 188 106 51 237 56 333 12z m858 21 c17 -6 31
-14 31 -17 0 -3 -16 -48 -36 -99 l-36 -93 -50 0 c-58 0 -96 -17 -132 -61 -64
-75 -92 -163 -136 -419 -17 -96 -32 -185 -35 -197 -5 -22 -10 -23 -104 -23
l-98 0 7 43 c4 23 38 225 75 450 l69 407 94 0 95 0 -7 -52 c-4 -29 -10 -64
-13 -78 -4 -17 10 -4 43 39 73 97 149 129 233 100z m526 -16 c124 -65 183
-202 171 -401 -3 -57 -8 -108 -12 -113 -3 -5 -116 -9 -256 -9 l-250 0 7 -47
c9 -65 27 -103 63 -136 62 -59 150 -41 207 44 l31 45 82 -17 c45 -9 85 -18 87
-21 10 -10 -53 -114 -95 -158 -59 -61 -125 -92 -209 -98 -79 -5 -130 7 -193
47 -203 129 -224 527 -40 758 44 55 105 96 175 119 60 20 181 13 232 -13z
m-636 -325 c-4 -24 -11 -84 -15 -135 -6 -82 -9 -91 -25 -88 -11 2 -19 -2 -19
-8 0 -8 -3 -8 -9 1 -4 8 -11 13 -15 13 -24 -3 -26 2 -20 37 14 76 45 162 70
192 35 41 43 38 33 -12z m-158 -657 c7 11 9 9 9 -6 0 -16 2 -17 9 -6 5 8 25
16 44 16 34 2 35 1 26 -24 -14 -36 -56 -79 -104 -104 -37 -20 -55 -22 -215
-22 -174 0 -175 0 -223 28 l-48 29 -47 -22 c-163 -77 -366 -78 -520 -4 -50 24
-54 25 -71 9 -35 -31 -124 -57 -213 -63 -146 -8 -262 24 -352 100 -33 28 -52
38 -61 32 -200 -150 -485 -178 -712 -70 -89 43 -148 85 -134 99 5 5 32 7 60 6
28 -2 53 1 55 6 3 7 7 7 13 0 10 -12 56 -18 49 -6 -3 5 25 2 62 -6 119 -25
257 -27 339 -6 52 14 76 16 84 9 7 -6 9 -6 6 -1 -3 6 6 11 19 11 23 2 24 1 7
-12 -16 -12 -14 -13 12 -4 35 12 305 19 305 8 0 -4 10 -6 23 -5 12 1 53 -5 91
-12 78 -16 185 -10 238 12 20 8 40 12 46 8 6 -4 39 -4 72 -1 38 4 60 2 61 -5
0 -5 3 -4 6 3 2 6 9 12 14 12 6 0 8 -4 5 -8 -2 -4 4 -8 14 -8 10 0 16 4 14 8
-6 9 21 4 61 -12 52 -20 184 -24 254 -7 35 8 71 13 79 9 9 -3 13 -1 9 5 -4 7
5 9 26 7 34 -5 116 -5 157 0 14 1 30 -1 36 -6 17 -13 336 -5 359 9 16 10 21 9
24 -4 2 -13 5 -14 12 -2z m309 -1 c55 4 74 2 86 -10 12 -12 15 -12 12 -1 -2 7
3 16 11 19 9 3 11 0 6 -8 -5 -8 -4 -11 1 -7 5 3 34 -1 64 -9 64 -16 139 -18
195 -3 22 6 69 12 105 14 36 2 76 7 89 10 21 5 23 4 12 -9 -17 -21 -7 -21 13
0 9 8 16 11 16 6 0 -4 14 -7 30 -4 43 6 37 -12 -15 -48 -119 -82 -222 -115
-355 -115 -114 1 -199 26 -289 86 -63 42 -110 95 -71 81 11 -4 51 -5 90 -2z
m-860 -1489 c12 18 18 -48 26 -253 l6 -188 -287 0 -287 0 6 183 c4 100 9 199
12 220 l6 37 236 -2 c131 -1 218 -3 195 -5 -54 -5 -56 -23 -3 -23 34 0 41 4
46 25 5 22 8 23 21 9 12 -12 18 -12 23 -3z m1094 -21 c3 0 3 8 -1 18 -4 12 -1
11 11 -5 10 -14 27 -92 46 -222 17 -110 30 -203 30 -206 0 -5 -570 -8 -570 -2
-6 51 -27 372 -26 397 l1 35 243 3 c183 2 242 5 243 15 0 6 4 2 9 -10 5 -13
12 -23 14 -23z m-4864 23 c8 7 14 8 16 2 3 -6 87 -9 233 -8 l229 3 -23 -83
c-12 -45 -40 -144 -61 -219 l-38 -138 -283 0 c-221 0 -283 3 -283 13 0 14 134
387 150 417 8 16 15 18 29 11 12 -7 22 -6 31 2z m1403 -11 c-50 -2 -83 -7 -83
-13 0 -14 159 -2 177 13 6 5 24 8 40 6 24 -3 28 -7 29 -38 1 -20 -12 -117 -30
-215 l-31 -180 -283 -3 c-250 -2 -282 -1 -282 13 0 28 91 379 102 392 5 7 6
18 2 24 -4 8 -3 9 4 5 7 -4 12 -4 12 1 0 4 96 6 212 3 117 -2 176 -6 131 -8z
m775 -3 c9 5 124 10 256 10 207 2 238 0 233 -13 -3 -8 -1 -16 5 -18 9 -3 -4
-285 -18 -375 l-5 -33 -285 0 -285 0 6 33 c3 17 14 97 25 177 22 156 43 255
48 227 3 -12 8 -15 20 -8z m3302 0 c0 9 66 11 247 11 l246 -1 18 -37 c30 -62
109 -393 95 -398 -6 -2 -135 -3 -286 -2 l-274 3 -28 150 c-15 83 -29 173 -32
200 -2 28 -8 59 -12 70 -7 18 -6 18 9 6 12 -9 17 -10 17 -2z m1486 3 c-3 -5 1
-9 9 -9 8 0 12 4 9 9 -3 4 11 8 31 8 22 0 38 -6 41 -14 3 -8 13 -17 21 -20 13
-5 14 -4 3 9 -11 13 -10 14 4 9 9 -3 16 -7 16 -8 0 -1 32 -89 70 -196 39 -107
70 -200 70 -207 0 -11 -58 -13 -282 -11 l-283 3 -28 95 c-60 202 -86 315 -75
327 12 15 403 19 394 5z m-6416 -682 c0 -5 3 -9 8 -9 4 1 14 1 22 0 13 -1 13
-2 0 -11 -8 -5 -11 -10 -6 -10 5 0 17 7 27 16 19 17 34 13 49 -16 8 -16 6 -18
-23 -16 l-32 1 -3 -75 c-3 -89 -10 -115 -22 -85 -8 17 -9 16 -9 -8 -1 -25 -3
-27 -22 -16 -12 6 -19 7 -15 1 3 -5 -1 -12 -9 -15 -11 -5 -15 9 -21 63 -5 49
-12 74 -26 87 -18 16 -19 16 -12 -2 5 -13 4 -16 -4 -11 -9 5 -12 -8 -14 -46 0
-29 -2 -57 -3 -63 -2 -5 -3 -15 -4 -20 0 -6 -9 -11 -18 -11 -12 0 -19 9 -20
28 -1 15 -10 42 -18 59 -10 19 -15 47 -13 71 3 36 2 39 -19 33 -24 -6 -27 2
-17 41 5 20 13 22 115 23 68 1 109 -3 109 -9z m191 -12 l19 -21 0 21 c0 18 6
22 30 22 26 0 30 -4 30 -28 0 -56 28 -127 60 -150 l30 -23 0 26 c0 21 5 25 30
25 l30 0 0 -146 0 -146 -22 5 c-66 16 -98 19 -98 8 0 -18 44 -41 83 -43 37 -3
54 -28 20 -28 -33 0 -92 21 -100 35 -5 7 -28 15 -53 17 l-45 4 33 13 c26 10
32 19 32 42 0 28 -2 29 -47 29 -65 0 -116 16 -153 46 l-30 26 0 -25 c0 -14 12
-40 26 -57 15 -17 23 -34 19 -38 -10 -10 -54 47 -64 83 -12 46 4 86 54 132 48
44 75 101 75 159 0 39 15 43 41 12z m569 9 c0 -8 12 -24 26 -38 35 -32 54 -79
54 -133 0 -44 -1 -45 -41 -56 -58 -16 -73 -10 -77 28 -2 18 -9 32 -16 32 -7 0
-21 9 -32 21 -21 23 -12 46 24 65 12 6 19 14 15 17 -3 4 -2 7 4 7 5 0 9 16 8
35 -2 28 1 35 16 35 11 0 19 -6 19 -13z m4196 -77 c33 0 74 -30 74 -54 0 -26
-17 -36 -61 -36 -25 0 -29 -4 -29 -29 0 -39 11 -44 61 -31 22 6 42 10 44 8 2
-2 0 -39 -3 -83 l-7 -80 -47 -9 -48 -9 0 -48 c0 -45 -1 -47 -32 -52 -18 -2
-35 -3 -38 0 -9 8 -8 363 1 402 4 20 19 45 33 56 15 12 27 30 28 40 1 11 3 -1
5 -27 3 -34 8 -48 19 -48z m245 63 c1 -16 1 -34 0 -41 -1 -6 9 -17 23 -24 41
-18 44 -48 7 -78 -17 -15 -31 -36 -31 -49 0 -29 -23 -36 -71 -22 l-39 12 0 64
c0 60 3 68 35 104 19 21 35 44 35 50 0 6 9 11 20 11 15 0 20 -7 21 -27z m529
0 c1 -26 1 -27 12 -8 11 20 28 35 39 35 4 0 9 -23 13 -51 9 -65 30 -107 72
-142 l34 -29 0 87 0 87 -30 -4 c-34 -5 -34 -4 -20 23 13 24 36 25 50 2 9 -17
11 -16 29 5 17 19 29 22 91 22 49 0 69 -3 64 -11 -5 -8 -1 -8 14 0 44 24 72 9
72 -38 0 -14 -6 -17 -27 -13 -23 4 -26 2 -15 -9 17 -19 15 -78 -3 -85 -8 -4
-15 -17 -15 -31 0 -13 -4 -21 -10 -18 -6 4 -11 -14 -12 -47 l-1 -53 -7 55 c-6
53 -7 53 -10 15 -3 -44 -3 -44 -16 73 -4 42 -9 52 -24 52 -20 0 -21 -4 -39
-115 l-9 -50 -2 40 -3 40 -7 -35 -7 -35 -3 35 -2 35 -8 -30 c-8 -30 -10 -29
-14 12 -4 31 -16 41 -17 15 -1 -12 -2 -27 -3 -34 -1 -7 -13 -26 -28 -42 -20
-22 -25 -33 -17 -42 7 -9 7 -19 -1 -34 -9 -17 -17 -20 -38 -15 -36 9 -38 12
-19 33 28 31 21 44 -20 40 -32 -3 -40 -8 -53 -36 -12 -28 -19 -33 -40 -30 -22
3 -25 0 -25 -27 0 -24 6 -33 35 -47 l35 -17 -44 0 c-31 -1 -52 -8 -67 -22 -24
-23 -117 -33 -121 -14 -3 10 6 12 59 14 15 1 40 12 55 26 l28 25 -55 -6 c-60
-7 -57 -7 -82 -5 -16 1 -18 13 -20 89 -2 82 -2 83 -5 20 l-4 -68 -80 0 c-55 0
-81 4 -83 13 -3 6 -7 43 -10 80 l-5 68 32 -8 c33 -8 82 -9 130 -2 25 3 27 7
27 46 l0 43 45 0 c44 0 45 -1 39 -27 l-7 -27 30 22 c36 26 63 86 63 142 0 38
2 40 30 40 26 0 30 -4 30 -27z m-5149 -39 c24 -25 24 -29 27 -241 l3 -216 -23
7 c-13 3 -31 6 -41 6 -15 0 -18 7 -15 48 l3 47 -50 10 -50 10 -3 83 c-2 45 -1
82 0 82 2 0 19 -4 38 -10 48 -14 66 -6 66 30 0 26 -3 30 -25 30 -44 0 -71 12
-71 30 0 24 30 49 69 56 23 5 30 11 27 21 -7 16 0 33 13 33 4 0 18 -12 32 -26z
m1036 -141 c-8 -16 -20 -59 -27 -98 -7 -38 -15 -64 -18 -56 -2 7 1 38 8 68 6
30 10 57 7 60 -3 2 -13 -30 -22 -72 -10 -42 -19 -74 -21 -72 -4 4 12 96 22
132 4 11 3 16 -2 12 -5 -5 -17 -39 -26 -75 -10 -37 -15 -50 -13 -29 3 20 7 54
10 75 2 20 -5 0 -17 -46 -11 -46 -22 -81 -24 -79 -4 3 12 106 22 137 2 10 -3
16 -15 17 -16 1 -21 -9 -31 -61 -6 -34 -16 -69 -21 -77 -10 -15 -10 -16 11 85
6 27 9 51 6 53 -5 6 -11 -15 -27 -92 -6 -33 -14 -55 -16 -49 -2 6 3 40 11 77
7 37 10 67 6 67 -4 0 -12 -32 -19 -71 -7 -38 -15 -68 -18 -65 -8 8 18 139 30
155 19 22 48 30 125 30 l73 1 -14 -27z m2876 7 c18 -15 29 -37 37 -78 6 -31
14 -66 16 -77 4 -16 3 -17 -4 -5 -6 8 -15 41 -22 73 -16 78 -24 66 -10 -13 6
-34 9 -64 7 -67 -3 -2 -11 28 -18 66 -7 39 -16 71 -22 71 -5 0 -7 -6 -4 -13
10 -26 29 -129 24 -133 -3 -3 -13 30 -22 73 -10 43 -20 73 -22 67 -2 -6 3 -39
11 -74 9 -35 13 -66 11 -68 -4 -5 -23 60 -31 111 -4 20 -10 37 -14 37 -4 0 -1
-28 7 -61 8 -34 12 -69 11 -78 -2 -9 -10 13 -17 49 -16 80 -20 94 -26 88 -3
-3 1 -35 9 -72 18 -85 7 -77 -16 12 -17 64 -18 51 -4 -48 3 -19 -2 -5 -12 32
-16 62 -41 113 -28 58 33 -144 34 -185 1 -55 -12 50 -26 98 -30 108 -6 15 0
17 68 17 59 0 79 -4 100 -20z m-3533 -45 c19 0 48 4 63 8 l28 8 -3 -78 -3 -78
-81 -3 c-94 -3 -94 -3 -94 101 l0 57 28 -7 c15 -4 43 -8 62 -8z m-1139 -195
c10 -6 19 -15 19 -21 0 -6 7 -17 15 -25 20 -20 116 -9 149 17 30 23 46 24 46
3 0 -10 6 -14 15 -11 8 4 17 1 21 -5 4 -7 9 -6 15 3 7 11 9 10 9 -3 0 -10 -6
-18 -14 -18 -7 0 -19 -13 -26 -30 -7 -16 -16 -27 -21 -24 -5 3 -9 0 -9 -7 0
-8 -3 -9 -13 0 -8 6 -17 8 -20 5 -3 -4 -14 2 -24 11 -11 11 -18 14 -21 6 -2
-6 -8 -9 -13 -5 -5 3 -9 0 -9 -7 0 -10 -3 -10 -12 -1 -7 7 -29 12 -50 12 -31
0 -40 -5 -47 -22 -8 -21 -10 -22 -16 -5 -6 14 -10 15 -16 6 -6 -10 -11 -10
-22 0 -12 9 -16 9 -20 -1 -4 -10 -8 -10 -16 2 -8 12 -11 12 -17 -3 -6 -17 -7
-17 -19 0 -11 14 -11 22 0 44 21 40 42 54 60 39 13 -10 15 -9 15 12 0 38 10
44 41 28z m267 -390 c24 -23 29 -59 10 -79 -11 -10 -7 -11 16 -5 31 8 46 -6
46 -44 0 -28 -50 -52 -111 -52 -40 0 -41 -1 -37 -31 5 -29 4 -30 -31 -27 -34
3 -36 5 -36 40 0 20 -3 40 -7 44 -14 14 -8 21 15 20 12 0 29 -9 37 -19 15 -18
16 -18 40 3 13 11 30 18 37 15 9 -3 11 0 7 6 -3 6 -6 31 -6 55 1 34 -4 47 -20
58 -12 8 -25 13 -30 10 -4 -3 -8 -1 -8 4 0 28 48 30 78 2z m5862 5 c11 -13 8
-15 -13 -15 -32 0 -34 -4 -38 -60 -1 -25 -7 -51 -13 -59 -8 -11 -8 -13 2 -7 7
4 23 1 36 -8 26 -17 66 -18 63 -1 -1 5 10 11 26 13 28 3 37 -11 14 -25 -7 -4
-13 -24 -13 -43 1 -32 -1 -35 -31 -38 -31 -3 -33 -1 -33 27 0 29 -2 31 -39 31
-46 0 -98 17 -104 34 -3 7 -3 25 0 40 5 24 10 27 33 24 26 -4 26 -3 16 25 -10
26 -8 31 17 53 32 27 59 31 77 9z m-4790 -25 l6 -25 18 28 c15 23 25 27 62 27
l45 0 -33 -44 c-28 -38 -39 -45 -73 -48 l-40 -3 -3 -332 -2 -333 29 0 c20 0
31 6 34 18 3 9 4 158 3 330 0 171 2 312 7 312 4 0 7 -147 7 -327 0 -252 3
-324 12 -315 9 9 15 9 27 -2 21 -19 159 -46 231 -46 44 0 59 4 64 16 5 14 4
15 -9 4 -13 -11 -15 -8 -15 23 0 38 30 67 70 67 11 0 20 5 20 11 0 18 27 -8
33 -31 3 -11 1 -23 -4 -26 -5 -3 -7 -10 -4 -15 4 -5 -2 -6 -12 -2 -10 3 -15 2
-10 -2 4 -5 -10 -16 -30 -26 -35 -16 -36 -17 -12 -18 14 -1 47 13 72 30 39 26
47 36 47 62 0 51 11 77 31 77 18 0 19 -9 19 -115 l0 -115 -1250 0 c-994 0
-1250 3 -1250 13 1 6 16 37 35 67 19 30 42 69 51 85 20 37 44 65 56 65 4 0 8
-18 8 -40 0 -50 29 -80 92 -100 59 -17 194 -24 246 -12 37 9 44 8 52 -9 6 -10
25 -20 43 -23 48 -8 145 -15 125 -9 -22 6 -24 41 -3 49 8 4 23 3 32 0 12 -5
14 -9 5 -18 -19 -19 -14 -30 8 -18 11 6 20 20 20 30 0 16 7 20 35 20 20 0 51
7 70 14 30 13 35 20 35 50 0 41 9 68 20 61 5 -3 12 0 16 6 4 7 3 9 -3 6 -11
-7 -33 33 -33 59 0 13 5 12 25 -5 14 -11 39 -22 55 -26 28 -6 29 -8 23 -55 -3
-26 -3 -64 1 -84 l7 -36 332 0 332 0 33 59 33 60 -1 198 c-1 380 -5 344 36
397 34 44 38 47 77 44 35 -3 42 -7 47 -28z m4084 -12 l35 -43 -34 -3 -34 -3 0
-335 0 -334 34 0 c32 0 35 2 35 31 l0 30 25 -28 24 -28 1 330 c0 202 4 324 9
316 5 -8 8 -134 6 -285 -2 -149 -1 -292 2 -318 5 -45 8 -48 35 -48 l28 0 -2
333 -3 332 -40 3 c-34 3 -45 10 -73 48 l-33 44 45 0 c37 0 47 -4 62 -27 l18
-28 6 25 c5 21 12 25 47 28 39 3 43 0 77 -44 36 -47 36 -47 36 -150 0 -87 2
-102 15 -98 23 9 37 79 30 148 l-7 61 64 0 63 0 0 -93 c0 -100 0 -100 64 -142
20 -14 23 -24 24 -89 1 -40 -1 -75 -6 -78 -4 -2 -4 -9 -1 -15 4 -6 3 -8 -3 -5
-5 3 -27 0 -49 -8 -46 -16 -116 -19 -162 -6 -31 9 -32 9 -32 -20 0 -36 27 -49
100 -49 46 0 70 6 127 33 29 13 32 10 26 -30 -6 -37 -26 -43 -54 -17 -20 18
-51 12 -48 -8 1 -7 -1 -20 -5 -29 -6 -14 -13 -15 -42 -6 -40 12 -49 7 -40 -26
6 -27 44 -47 98 -53 45 -6 88 18 81 44 -3 14 4 18 36 20 22 1 43 -3 47 -9 4
-8 0 -9 -15 -4 -18 5 -21 3 -19 -19 2 -21 6 -24 24 -20 16 4 27 0 36 -15 15
-24 56 -28 107 -10 l31 11 2 96 c1 54 2 112 2 131 1 19 7 36 14 38 6 3 12 17
12 33 0 28 21 55 33 43 4 -3 7 -1 7 6 0 9 5 9 21 0 12 -6 19 -7 16 -1 -4 5 13
3 37 -5 l43 -14 -35 -35 c-19 -19 -38 -31 -43 -28 -5 3 -9 2 -9 -3 -1 -4 -3
-31 -5 -60 -5 -49 -3 -53 24 -69 32 -19 32 -34 1 -34 -30 0 -30 -26 0 -44 18
-10 27 -22 24 -31 -4 -8 -10 -12 -16 -9 -15 10 -38 -4 -32 -20 10 -26 75 -41
184 -41 111 0 193 20 223 53 9 9 17 34 19 56 l3 38 63 -105 c34 -58 62 -108
62 -111 0 -3 -171 -6 -380 -6 l-380 0 0 29 c0 17 -4 33 -10 36 -5 3 -10 1 -10
-6 0 -9 -3 -9 -14 0 -11 9 -15 9 -20 -1 -5 -11 -7 -11 -12 0 -5 10 -9 10 -20
1 -11 -9 -14 -9 -14 1 0 9 -3 10 -14 1 -11 -9 -15 -8 -20 4 -4 12 -19 15 -59
14 -30 -1 -59 1 -65 5 -6 3 -18 -4 -26 -16 -9 -12 -16 -16 -16 -9 0 10 -3 11
-14 2 -11 -9 -15 -9 -19 1 -4 10 -8 10 -16 -2 -9 -13 -11 -12 -11 6 0 11 -6
29 -14 40 -25 34 -30 -8 -7 -55 12 -22 21 -43 21 -46 0 -3 -313 -5 -695 -5
l-695 0 0 195 0 195 25 0 c20 0 25 -5 25 -25 0 -33 25 -81 47 -94 15 -8 16
-12 6 -22 -15 -15 -17 -33 -4 -24 5 3 12 1 16 -4 3 -7 15 -7 29 -1 13 5 33 6
43 4 18 -5 18 -8 -9 -36 l-29 -31 -29 21 c-35 26 -39 21 -36 -41 3 -51 22 -79
68 -103 32 -17 78 -19 78 -3 0 5 -4 7 -10 4 -5 -3 -10 -1 -10 4 0 6 -7 11 -15
11 -8 0 -15 5 -15 12 0 6 -3 8 -6 5 -4 -4 -1 -14 7 -23 13 -16 12 -16 -8 -4
-12 8 -19 18 -16 24 4 5 -1 7 -10 3 -13 -5 -17 0 -17 21 0 15 4 32 8 39 8 13
52 14 52 1 0 -4 3 -8 8 -7 20 3 52 -15 52 -30 0 -9 3 -27 6 -41 4 -20 3 -22
-5 -10 -9 13 -11 12 -11 -4 0 -18 6 -19 93 -13 95 6 177 28 198 53 9 11 53 14
230 14 l219 0 0 23 c1 20 2 21 14 5 7 -10 16 -18 20 -18 3 0 6 147 6 328 l0
327 -35 44 c-19 24 -35 45 -35 47 0 2 18 4 39 4 34 0 44 -6 75 -42z m-4871
-83 c-3 -22 -9 -42 -13 -45 -14 -10 -31 -52 -26 -65 3 -8 13 -11 24 -8 10 2
26 -2 34 -10 8 -9 20 -12 29 -7 8 4 42 11 76 15 56 6 62 5 68 -14 5 -16 15
-21 42 -21 32 0 62 -20 63 -42 0 -4 -32 -8 -72 -10 l-72 -3 -9 -43 c-10 -52
-31 -51 -35 1 -2 24 -8 37 -18 37 -8 0 -13 -3 -13 -7 1 -5 1 -25 0 -45 -1 -29
-4 -36 -16 -32 -10 4 -15 20 -15 45 0 28 -4 39 -15 39 -11 0 -15 -12 -15 -45
0 -33 -4 -45 -15 -45 -11 0 -15 12 -15 45 0 33 -4 45 -15 45 -11 0 -15 -12
-15 -46 0 -58 -21 -55 -33 4 -14 70 -27 47 -27 -46 0 -49 -3 -91 -6 -95 -3 -3
-23 1 -44 8 -21 7 -42 10 -46 7 -4 -4 -4 -1 0 6 4 6 2 12 -3 12 -7 0 -11 29
-11 74 0 75 0 75 38 103 20 15 40 32 44 37 13 19 19 101 10 146 l-8 45 67 0
68 0 -6 -40z m3573 -217 c-4 -148 -10 -161 -69 -149 -30 7 -32 10 -31 48 0 29
-3 40 -12 36 -12 -4 -17 20 -30 145 l-6 52 76 0 76 0 -4 -132z m494 76 c0 -7
4 -16 10 -19 6 -4 7 6 3 26 -5 28 -4 30 13 22 10 -5 54 -8 97 -7 43 1 80 -2
83 -8 4 -6 9 -6 14 2 4 7 10 8 13 3 4 -6 -5 -25 -19 -44 -14 -19 -30 -44 -35
-56 -9 -25 -29 -31 -29 -9 0 13 -41 26 -85 26 -13 0 -26 7 -29 16 -4 9 -9 14
-13 10 -6 -6 -14 4 -49 59 l-18 30 22 -19 c12 -11 22 -25 22 -32z m-3475 14
c4 -3 -2 -21 -11 -40 -10 -18 -21 -55 -25 -83 l-6 -50 -2 43 c-1 30 -5 42 -16
42 -11 0 -15 -12 -15 -46 0 -59 -24 -55 -28 4 -4 57 -32 59 -32 3 0 -22 -5
-41 -13 -44 -9 -3 -12 5 -9 30 3 26 -4 46 -32 88 -35 53 -35 54 -13 58 31 7
195 2 202 -5z m4036 -9 c11 -6 21 -4 28 5 11 13 65 16 74 5 23 -29 46 -83 38
-88 -6 -4 -13 -25 -17 -48 -8 -54 -34 -48 -34 8 0 57 -28 54 -32 -3 -2 -24 -7
-43 -13 -43 -5 0 -11 19 -13 43 -2 28 -8 42 -18 42 -10 0 -14 -12 -14 -45 0
-33 -4 -45 -15 -45 -11 0 -15 12 -15 45 0 33 -4 45 -14 45 -10 0 -16 -14 -18
-45 -4 -55 -23 -49 -32 10 -3 22 -5 41 -6 43 0 1 -34 2 -75 2 -41 0 -75 3 -75
8 1 22 30 42 63 42 27 0 39 6 47 21 10 19 17 20 68 14 31 -3 64 -11 73 -16z
m-5129 -127 c10 2 14 -19 16 -80 3 -79 2 -83 -25 -107 -27 -24 -27 -24 -6 -25
17 0 21 -4 16 -17 -4 -10 -10 -21 -15 -24 -5 -3 -10 -19 -11 -35 -2 -25 2 -29
24 -32 15 -2 35 -12 44 -22 15 -17 16 -20 3 -25 -22 -9 -121 17 -126 33 -2 6
4 12 12 12 12 0 15 6 10 25 -4 15 -2 25 5 25 6 0 11 7 11 15 0 8 -9 15 -20 15
-27 0 -25 17 6 43 21 19 24 26 16 48 -6 14 -8 38 -5 54 5 22 3 27 -9 22 -9 -3
-27 8 -47 28 l-31 33 42 15 c27 9 49 11 60 6 9 -5 23 -8 30 -7z m-247 -7 c6
-1 21 -22 34 -45 l24 -43 -85 5 c-53 4 -102 13 -130 26 -44 19 -65 38 -55 48
15 16 169 22 212 9z m6865 6 c73 -3 76 -38 7 -66 -48 -20 -207 -33 -207 -18 0
6 10 25 23 44 23 34 57 47 117 43 14 0 41 -2 60 -3z m-1807 -127 c3 -4 2 -15
-4 -25 -7 -14 -6 -19 3 -19 9 0 9 -3 -2 -10 -13 -8 -12 -11 5 -24 14 -10 16
-14 5 -14 -34 2 -63 -2 -56 -9 3 -4 20 -7 36 -8 80 -4 44 -47 -58 -71 -57 -14
-162 -19 -162 -9 0 16 32 66 48 73 9 5 41 8 70 7 50 -3 52 -2 46 19 -3 11 -6
23 -6 26 -1 36 5 48 30 57 35 14 37 14 45 7z m-1484 -176 c32 -27 69 -48 86
-50 l30 -3 71 -270 c40 -148 69 -273 65 -277 -9 -9 -820 -223 -825 -217 -3 3
-37 122 -76 264 -39 143 -72 265 -75 272 -2 7 11 16 32 22 23 7 62 34 102 73
l66 63 -55 -57 c-30 -32 -51 -58 -47 -58 4 0 144 37 310 81 166 45 312 84 325
87 12 2 24 8 27 12 4 7 -70 76 -167 154 -27 21 -48 43 -48 48 0 6 28 -14 61
-44 34 -29 87 -74 118 -100z m-1703 71 c13 -19 23 -38 23 -43 1 -5 -38 -6 -91
-2 -67 5 -104 13 -132 29 -77 43 -59 53 93 51 l85 -1 22 -34z"/>
        <path d="M5862 7130 c-108 -66 -173 -329 -112 -454 31 -65 70 -88 138 -83 44
3 59 10 88 38 130 126 156 429 42 499 -43 26 -113 26 -156 0z"/>
        <path d="M7275 7148 c-42 -23 -76 -64 -95 -115 -36 -97 -42 -93 130 -93 l150
0 0 56 c0 100 -48 164 -124 164 -22 0 -50 -6 -61 -12z"/>
        <path d="M5805 2458 c-203 -55 -372 -101 -374 -104 -4 -4 117 -485 123 -492 4
-4 760 200 768 207 11 9 -124 491 -136 490 -6 -1 -177 -46 -381 -101z m379 55
c27 -90 106 -408 103 -416 -4 -13 -700 -198 -709 -189 -10 11 -121 422 -115
428 5 5 683 191 704 193 6 1 14 -7 17 -16z"/>
        <path d="M6143 2362 c-10 -6 -10 -17 -3 -42 6 -19 10 -36 10 -38 0 -2 -18 10
-39 27 -39 31 -65 39 -75 23 -3 -5 2 -38 12 -73 14 -52 21 -65 40 -67 25 -4
27 4 12 44 -15 40 -4 42 33 6 24 -23 38 -30 55 -25 15 3 21 11 18 22 -3 9 -12
42 -21 74 -17 58 -21 63 -42 49z"/>
        <path d="M5610 2223 c-52 -19 -66 -80 -29 -127 42 -54 139 -19 139 50 0 59
-55 97 -110 77z"/>
        <path d="M6833 7754 c-19 -5 -23 -12 -23 -44 0 -21 -4 -42 -10 -45 -6 -4 -6
-12 1 -23 9 -14 27 -17 97 -17 73 0 96 -4 144 -27 55 -26 57 -26 101 -10 25 9
50 25 57 35 9 15 9 18 -2 11 -10 -6 -11 -5 -1 7 7 9 8 20 3 29 -5 8 -6 19 -2
25 21 33 -15 41 -78 17 -19 -7 -35 -3 -72 16 -48 25 -159 38 -215 26z"/>
        <path d="M5773 7733 l-63 -14 0 -68 0 -67 68 17 c37 10 77 18 89 18 19 1 22 7
25 66 l3 65 -30 -1 c-16 0 -58 -7 -92 -16z"/>
        <path d="M7434 7729 c-3 -6 -1 -16 4 -21 7 -7 8 -17 2 -29 -7 -13 -5 -19 7
-24 15 -5 15 -7 3 -15 -20 -12 -6 -24 50 -39 151 -44 302 -178 350 -313 8 -20
18 -34 23 -31 6 3 7 1 4 -5 -4 -5 -2 -21 3 -34 19 -43 2 93 -20 159 -55 168
-172 290 -328 342 -70 24 -88 26 -98 10z"/>
        <path d="M6420 7716 c-19 -7 -58 -29 -87 -50 -41 -30 -51 -41 -47 -59 7 -27 7
-37 1 -63 -7 -29 17 -26 68 8 22 15 52 30 68 33 15 4 30 12 33 17 7 11 9 116
3 122 -2 2 -20 -1 -39 -8z"/>
        <path d="M1083 5818 l-83 -90 0 -806 0 -805 85 108 85 108 0 788 c0 434 -1
789 -2 788 -2 0 -40 -41 -85 -91z"/>
        <path d="M452 5528 c-6 -6 -12 -18 -12 -25 0 -26 42 -34 189 -32 162 1 197 10
175 46 -10 16 -29 18 -175 21 -120 2 -168 -1 -177 -10z"/>
        <path d="M10580 5138 c0 -202 4 -368 8 -368 15 0 40 34 62 82 33 75 59 220 72
405 l12 173 634 0 c592 0 636 -2 671 -18 52 -25 100 -7 101 37 0 12 -3 12 -12
3 -15 -15 -50 -16 -64 -2 -7 7 -232 10 -672 10 l-662 0 0 23 c0 22 -4 23 -75
23 l-75 1 0 -369z"/>
        <path d="M450 5385 c-7 -8 -10 -22 -6 -30 5 -13 31 -15 183 -13 l178 3 0 25 0
25 -171 3 c-143 2 -173 0 -184 -13z"/>
        <path d="M444 5245 c-4 -8 -4 -22 0 -30 5 -13 32 -15 183 -13 l178 3 0 25 0
25 -178 3 c-151 2 -178 0 -183 -13z"/>
        <path d="M10897 5225 c4 -11 9 -128 11 -261 l3 -241 25 -12 c32 -14 136 -15
114 -1 -11 8 -7 9 15 4 17 -3 36 -7 43 -10 6 -2 12 2 12 9 0 8 3 8 9 -2 6 -9
11 -10 15 -2 4 6 13 11 19 11 7 0 6 -4 -3 -10 -13 -8 -12 -10 3 -10 9 0 17 5
17 12 0 6 7 3 16 -8 8 -10 13 -13 9 -6 -4 7 0 12 10 12 10 0 14 -5 9 -12 -6
-10 -4 -10 7 0 15 14 33 16 25 3 -4 -5 5 -4 18 2 13 7 22 16 18 22 -3 5 1 5 9
-2 11 -9 22 -7 49 7 l35 18 -50 0 c-142 -1 -145 -1 -145 32 0 25 5 30 33 35
17 3 95 5 172 3 l140 -3 3 -29 c2 -18 -3 -34 -16 -46 -11 -11 -22 -18 -24 -17
-2 1 4 -4 12 -11 12 -11 16 -10 18 3 3 15 5 14 18 -2 10 -14 13 -15 14 -3 0
13 1 13 10 0 6 -9 10 -10 10 -3 0 8 9 9 30 3 31 -9 110 -7 173 5 l37 7 0 236
c0 184 -3 233 -12 224 -9 -9 -122 -12 -445 -12 l-433 0 -20 38 c-12 20 -18 28
-13 17z m353 -195 l0 -40 146 0 145 0 -3 -27 -3 -28 -142 -3 -143 -3 0 -39 c0
-38 -2 -40 -30 -40 l-30 0 0 103 c0 57 3 107 7 110 3 4 17 7 30 7 20 0 23 -5
23 -40z"/>
        <path d="M444 5105 c-4 -8 -4 -22 0 -30 5 -13 32 -15 183 -13 l178 3 0 25 0
25 -178 3 c-151 2 -178 0 -183 -13z"/>
        <path d="M11512 4562 c-7 -2 -9 -9 -5 -15 5 -9 3 -9 -8 -1 -13 11 -296 10
-307 -1 -3 -2 -12 -1 -21 4 -9 4 -70 8 -136 7 l-120 -1 -3 -1015 -2 -1015 228
228 227 227 228 -228 227 -227 -2 1015 -3 1015 -113 0 c-63 0 -112 4 -112 9 0
6 -7 1 -16 -10 -8 -10 -13 -14 -10 -8 6 12 -31 23 -52 16z m4 -65 c19 -22 24
-40 24 -81 0 -98 -49 -121 -250 -114 l-95 3 -3 28 -3 27 123 0 c136 0 168 11
168 55 0 44 -32 55 -167 55 l-123 0 0 31 0 30 151 -3 151 -3 24 -28z m-51
-257 c80 -39 101 -130 44 -195 -37 -42 -92 -59 -171 -52 -95 8 -148 56 -148
132 0 82 68 135 174 135 39 0 74 -7 101 -20z m-170 -317 c4 -17 2 -29 -4 -31
-24 -8 -41 -35 -41 -62 0 -43 36 -62 115 -62 79 0 115 19 115 61 0 28 -20 53
-53 64 -15 6 -16 10 -6 29 6 13 13 25 15 26 8 11 77 -35 89 -59 51 -97 -24
-182 -160 -182 -107 0 -175 48 -175 124 0 51 13 75 53 99 41 26 44 25 52 -7z
m195 -268 c39 -20 50 -43 50 -102 0 -54 -21 -86 -67 -104 -41 -16 -53 -11 -53
20 0 22 6 30 25 35 40 10 48 77 13 100 -27 16 -49 -3 -68 -58 -31 -93 -116
-127 -174 -70 -53 54 -26 163 45 179 22 6 27 3 31 -19 4 -19 -1 -30 -19 -41
-33 -22 -30 -78 4 -83 17 -3 25 3 33 25 26 72 46 105 69 118 34 19 75 19 111
0z m50 -285 l0 -30 -175 0 -175 0 0 30 0 30 175 0 175 0 0 -30z m-110 -81 c85
-19 121 -83 105 -185 l-6 -44 -164 0 -164 0 -6 44 c-15 100 21 166 100 185 54
12 82 12 135 0z"/>
        <path d="M11295 4190 c-54 -21 -60 -88 -12 -124 56 -41 185 -16 195 38 7 33
-8 66 -38 81 -31 16 -112 19 -145 5z"/>
        <path d="M11294 3226 c-34 -15 -44 -33 -44 -77 l0 -29 115 0 115 0 0 34 c0 54
-25 75 -95 81 -40 4 -70 1 -91 -9z"/>
        <path d="M5187 975 c-8 -8 -17 -12 -19 -10 -9 10 -67 -108 -97 -196 -36 -110
-39 -147 -10 -183 l20 -26 805 0 c791 0 804 0 824 20 12 12 20 33 20 53 0 82
-122 347 -160 347 -5 0 -1 -15 10 -32 19 -35 62 -159 57 -165 -6 -6 -1500 -4
-1506 2 -12 13 32 151 57 178 26 28 25 39 -1 12z"/>
        <path d="M11097 604 c-15 -8 -62 -25 -105 -37 l-77 -22 -4955 -3 c-3234 -2
-4994 1 -5067 7 -70 6 -141 20 -188 36 -41 14 -79 25 -83 25 -9 0 -7 -58 3
-82 4 -12 3 -18 -5 -18 -9 0 -10 -3 -1 -14 9 -10 8 -16 -4 -26 -37 -31 72 -92
205 -116 113 -20 9998 -20 10112 0 82 15 188 58 188 76 0 6 5 8 12 4 6 -4 8
-3 4 4 -3 6 -2 13 3 17 6 3 8 11 5 18 -2 7 -6 40 -7 74 -2 35 -6 65 -8 67 -2
2 -17 -2 -32 -10z"/>
    </g>
</svg>
